<svg width="1000" height="1000" viewBox="0 0 1000 1000" fill="none" xmlns="http://www.w3.org/2000/svg">
<mask id="mask0_704_2" style="mask-type:alpha" maskUnits="userSpaceOnUse" x="16" y="23" width="958" height="958">
<rect x="16" y="23" width="958" height="958" rx="40" fill="#D9D9D9"/>
</mask>
<g mask="url(#mask0_704_2)">
<rect x="-11" y="-11" width="1022" height="1022" fill="#FFF278"/>
<path d="M794.121 205H674.595V323.998H794.121V205Z" fill="#171717"/>
<path d="M555.073 205H435.595V323.998H555.073V205Z" fill="#171717"/>
<path d="M316.075 205H196.519V323.998H316.075V205Z" fill="#171717"/>
<path d="M196.52 205H91.94C83.6872 205 77 211.658 77 219.875V309.124C77 317.34 83.6872 323.998 91.94 323.998H196.52V205Z" fill="#171717"/>
<path d="M555.073 680.993H435.595V799.992H555.073V680.993Z" fill="#171717"/>
<path d="M794.121 680.993H674.595V799.992H794.121V680.993Z" fill="#171717"/>
<path d="M316.075 680.993H196.519V799.992H316.075V680.993Z" fill="#171717"/>
<path d="M77 695.868V785.117C77 793.334 83.6872 799.992 91.94 799.992H196.52V680.993H91.94C83.6872 680.993 77 687.651 77 695.868Z" fill="#171717"/>
<path d="M913.643 561.995H794.123V680.993H913.643V561.995Z" fill="#171717"/>
<path d="M794.123 205V323.998H898.703C906.956 323.998 913.643 317.34 913.643 309.124V219.875C913.643 211.658 906.956 205 898.703 205H794.123Z" fill="#171717"/>
<path d="M794.123 799.992H898.703C906.956 799.992 913.643 793.334 913.643 785.117V680.993H794.123V799.992Z" fill="#171717"/>
<path d="M316.075 442.998H196.519V561.997H316.075V442.998Z" fill="#171717"/>
<path d="M794.121 442.998H674.595V561.997H794.121V442.998Z" fill="#171717"/>
<path d="M196.52 442.998H91.94C83.6872 442.998 77 449.656 77 457.873V547.122C77 555.339 83.6872 561.997 91.94 561.997H196.52V442.998Z" fill="#171717"/>
<path d="M794.123 561.997H913.643V457.873C913.643 449.656 906.956 442.998 898.703 442.998H794.123V561.997Z" fill="#171717"/>
<path d="M435.597 323.999H316.077V442.997H435.597V323.999Z" fill="#171717"/>
<path d="M435.597 561.995H316.077V680.993H435.597V561.995Z" fill="#171717"/>
<path d="M435.597 205H316.077V323.999H435.597V205Z" fill="#171717"/>
<path d="M435.597 680.993H316.077V799.992H435.597V680.993Z" fill="#171717"/>
<path d="M435.597 442.998H316.077V561.997H435.597V442.998Z" fill="#171717"/>
<path d="M674.598 323.999H555.078V442.997H674.598V323.999Z" fill="#171717"/>
<path d="M674.598 561.995H555.078V680.993H674.598V561.995Z" fill="#171717"/>
<path d="M674.598 205H555.078V323.999H674.598V205Z" fill="#171717"/>
<path d="M674.598 680.993H555.078V799.992H674.598V680.993Z" fill="#171717"/>
<path d="M674.598 442.998H555.078V561.997H674.598V442.998Z" fill="#171717"/>
</g>
</svg>
