<svg width="1000" height="1000" viewBox="0 0 1000 1000" fill="none" xmlns="http://www.w3.org/2000/svg">
<mask id="mask0_704_2" style="mask-type:alpha" maskUnits="userSpaceOnUse" x="16" y="23" width="958" height="958">
<rect x="16" y="23" width="958" height="958" rx="40" fill="#D9D9D9"/>
</mask>
<g mask="url(#mask0_704_2)">
<rect x="-11" y="-11" width="1022" height="1022" fill="#FFF278"/>
<path d="M757.239 244H654.186V346.598H757.239V244Z" fill="#171717"/>
<path d="M551.136 244H448.124V346.598H551.136V244Z" fill="#171717"/>
<path d="M345.076 244H241.997V346.598H345.076V244Z" fill="#171717"/>
<path d="M241.998 244H151.831C144.715 244 138.95 249.74 138.95 256.825V333.774C138.95 340.858 144.715 346.598 151.831 346.598H241.998V244Z" fill="#171717"/>
<path d="M551.136 654.393H448.124V756.992H551.136V654.393Z" fill="#171717"/>
<path d="M757.239 654.393H654.186V756.992H757.239V654.393Z" fill="#171717"/>
<path d="M345.076 654.393H241.997V756.992H345.076V654.393Z" fill="#171717"/>
<path d="M138.95 667.218V744.167C138.95 751.251 144.715 756.992 151.831 756.992H241.998V654.393H151.831C144.715 654.393 138.95 660.134 138.95 667.218Z" fill="#171717"/>
<path d="M860.289 551.795H757.241V654.393H860.289V551.795Z" fill="#171717"/>
<path d="M757.241 244V346.598H847.408C854.523 346.598 860.289 340.858 860.289 333.774V256.825C860.289 249.74 854.523 244 847.408 244H757.241Z" fill="#171717"/>
<path d="M757.241 756.992H847.408C854.523 756.992 860.289 751.251 860.289 744.167V654.393H757.241V756.992Z" fill="#171717"/>
<path d="M345.076 449.198H241.997V551.797H345.076V449.198Z" fill="#171717"/>
<path d="M757.239 449.198H654.186V551.797H757.239V449.198Z" fill="#171717"/>
<path d="M241.998 449.198H151.831C144.715 449.198 138.95 454.939 138.95 462.023V538.972C138.95 546.056 144.715 551.797 151.831 551.797H241.998V449.198Z" fill="#171717"/>
<path d="M757.241 551.797H860.289V462.023C860.289 454.939 854.523 449.198 847.408 449.198H757.241V551.797Z" fill="#171717"/>
<path d="M448.126 346.599H345.078V449.197H448.126V346.599Z" fill="#171717"/>
<path d="M448.126 551.795H345.078V654.393H448.126V551.795Z" fill="#171717"/>
<path d="M448.126 244H345.078V346.598H448.126V244Z" fill="#171717"/>
<path d="M448.126 654.393H345.078V756.992H448.126V654.393Z" fill="#171717"/>
<path d="M448.126 449.198H345.078V551.797H448.126V449.198Z" fill="#171717"/>
<path d="M654.188 346.599H551.14V449.197H654.188V346.599Z" fill="#171717"/>
<path d="M654.188 551.795H551.14V654.393H654.188V551.795Z" fill="#171717"/>
<path d="M654.188 244H551.14V346.598H654.188V244Z" fill="#171717"/>
<path d="M654.188 654.393H551.14V756.992H654.188V654.393Z" fill="#171717"/>
<path d="M654.188 449.198H551.14V551.797H654.188V449.198Z" fill="#171717"/>
</g>
</svg>
